<svg width="164" height="36" viewBox="0 0 164 36" fill="none" xmlns="http://www.w3.org/2000/svg">
<path d="M28.6839 35.7413H6.79076C3.04169 35.7413 0 32.6996 0 28.9505V7.04857C0 3.2995 3.04169 0.257812 6.79076 0.257812H28.6839C32.433 0.257812 35.4746 3.2995 35.4746 7.04857V28.9417C35.4746 32.6996 32.433 35.7413 28.6839 35.7413Z" fill="#1C54E3"/>
<path d="M28.6839 35.7413H6.79076C3.04169 35.7413 0 32.6996 0 28.9505V7.04857C0 3.2995 3.04169 0.257812 6.79076 0.257812H28.6839C32.433 0.257812 35.4746 3.2995 35.4746 7.04857V28.9417C35.4746 32.6996 32.433 35.7413 28.6839 35.7413Z" fill="#1C54E3"/>
<path d="M22.0791 13.9367H11.4686C10.8407 13.9367 10.3279 13.4238 10.3279 12.7961V8.94976C10.3279 8.32193 10.8407 7.80908 11.4686 7.80908H22.0791C23.768 7.80908 25.1384 9.17963 25.1384 10.8685C25.1473 12.5662 23.7768 13.9367 22.0791 13.9367Z" fill="white"/>
<path d="M13.3166 28.1814C14.9671 28.1814 16.3052 26.8433 16.3052 25.1927C16.3052 23.5422 14.9671 22.2041 13.3166 22.2041C11.666 22.2041 10.3279 23.5422 10.3279 25.1927C10.3279 26.8433 11.666 28.1814 13.3166 28.1814Z" fill="white"/>
<path d="M20.6908 19.8881C20.231 20.3479 19.5856 20.6397 18.8782 20.6397H13.3253C11.9813 20.6397 10.8495 21.5239 10.4693 22.7353C10.4605 22.7617 10.4339 22.7794 10.4074 22.7794C10.3721 22.7794 10.3367 22.7441 10.3367 22.7087V16.6519C10.3367 16.024 10.8495 15.5112 11.4773 15.5112H18.8428C20.2399 15.5112 21.4159 16.6076 21.4512 18.0047C21.4601 18.7386 21.1683 19.4017 20.6908 19.8881Z" fill="white"/>
<path d="M160.149 29.402H98.5283C96.6803 29.402 95.1765 27.8989 95.1765 26.0509V15.962C95.1765 14.114 96.6803 12.6109 98.5283 12.6109H160.149C161.997 12.6109 163.5 14.114 163.5 15.962V26.0509C163.5 27.8989 161.997 29.402 160.149 29.402Z" fill="#1C54E3"/>
<path d="M55.5553 11.6906H47.8892V16.6864H52.7258C53.389 16.6864 53.9107 17.2169 53.9107 17.8712C53.9107 18.5609 53.3802 19.0561 52.7258 19.0561H47.8892V25.8468C47.8892 26.5631 47.3321 27.1112 46.6248 27.1112C45.9174 27.1112 45.3604 26.5542 45.3604 25.8468V10.5764C45.3604 9.86026 45.9174 9.31201 46.6248 9.31201H55.5553C56.2185 9.31201 56.7402 9.78946 56.7402 10.4969C56.7402 11.16 56.1919 11.6906 55.5553 11.6906Z" fill="#1C54E3"/>
<path d="M67.2799 21.072C67.2799 21.4964 67.0412 21.9297 66.3161 21.9297H58.3405C58.4731 23.7689 59.7287 25.157 61.9392 25.157C63.3275 25.157 64.1498 24.6796 65.0339 23.8484C65.2462 23.6362 65.5379 23.4506 65.8651 23.4506C66.4222 23.4506 66.9085 23.8484 66.9085 24.4939C66.9085 24.7592 66.7759 24.9979 66.5902 25.2101C65.5733 26.3861 63.7607 27.1554 61.8419 27.1554C57.863 27.1554 55.7585 24.379 55.7585 21.0455C55.7585 17.5529 58.2962 14.9356 61.7358 14.9356C65.087 14.9356 67.2799 17.6501 67.2799 21.072ZM61.727 16.9339C59.8878 16.9339 58.6322 18.2425 58.3935 19.896H64.9544C64.7422 18.2956 63.5396 16.9339 61.727 16.9339Z" fill="#1C54E3"/>
<path d="M80.2695 21.072C80.2695 21.4964 80.0303 21.9297 79.3058 21.9297H71.33C71.4626 23.7689 72.7182 25.157 74.9287 25.157C76.317 25.157 77.139 24.6796 78.0233 23.8484C78.2355 23.6362 78.5273 23.4506 78.8543 23.4506C79.4115 23.4506 79.8983 23.8484 79.8983 24.4939C79.8983 24.7592 79.7655 24.9979 79.5795 25.2101C78.5625 26.3861 76.7505 27.1554 74.8315 27.1554C70.8525 27.1554 68.7481 24.379 68.7481 21.0455C68.7481 17.5529 71.2858 14.9356 74.7254 14.9356C78.0855 14.9356 80.2695 17.6501 80.2695 21.072ZM74.7254 16.9339C72.8862 16.9339 71.6306 18.2425 71.3919 19.896H77.9528C77.7405 18.2956 76.5383 16.9339 74.7254 16.9339Z" fill="#1C54E3"/>
<path d="M87.3165 14.9362C89.1023 14.9362 90.57 15.8735 91.428 17.2264V10.4621C91.428 9.77242 91.932 9.20654 92.6835 9.20654C93.426 9.20654 93.939 9.62212 93.939 10.3207V25.7944C93.939 26.4841 93.5145 27.0499 92.7368 27.0499C91.9673 27.0499 91.5075 26.4664 91.5075 25.7679V24.8571C90.7028 26.2453 89.1023 27.1472 87.3165 27.1472C84.2483 27.1472 81.7365 24.583 81.7365 21.0373C81.7365 17.359 84.2483 14.9362 87.3165 14.9362ZM87.8205 25.0693C89.9775 25.0693 91.419 23.1771 91.419 21.0373C91.419 18.8975 89.9775 17.0053 87.8205 17.0053C85.6628 17.0053 84.2483 18.6322 84.2483 21.0373C84.2483 23.4424 85.6628 25.0693 87.8205 25.0693Z" fill="#1C54E3"/>
<path d="M102.472 27.173C100.792 27.173 99.2978 26.6425 98.2275 25.8113C97.8563 25.5195 97.6973 25.1216 97.6973 24.7679C97.6973 24.2374 98.1218 23.8837 98.661 23.8837C99.0855 23.8837 99.3503 24.0429 99.651 24.2551C100.367 24.7856 101.384 25.2985 102.666 25.2985C104.108 25.2985 104.877 24.7679 104.877 23.9368C104.877 23.026 104.134 22.6812 102.26 22.1772C98.979 21.293 97.7768 20.1789 97.7768 18.2513C97.7768 16.2529 99.6158 14.9443 102.498 14.9443C103.595 14.9443 104.815 15.2096 105.806 15.6871C106.522 16.0319 107.034 16.4563 107.034 16.9957C107.034 17.4732 106.769 17.9329 106.07 17.9329C105.726 17.9329 105.381 17.7738 104.974 17.5616C104.231 17.1637 103.4 16.9515 102.437 16.9515C101.102 16.9515 100.199 17.2963 100.199 18.2336C100.199 19.1443 101.004 19.4362 102.923 19.9932C105.806 20.8243 107.3 21.5936 107.3 23.7511C107.3 25.7317 105.646 27.173 102.472 27.173Z" fill="white"/>
<path d="M135.312 25.8113C135.312 26.501 134.834 27.0668 134.057 27.0668C133.313 27.0668 132.827 26.5098 132.827 25.8113V25.2277C132.084 26.3507 130.669 27.1729 128.936 27.1729C125.205 27.1729 123.039 24.4496 123.039 21.0631C123.039 17.7296 125.444 14.9531 129.202 14.9531C133.039 14.9531 135.312 17.4643 135.312 21.0631V25.8113ZM129.175 17.0841C127.044 17.0841 125.55 18.8702 125.55 21.0631C125.55 23.3531 126.805 25.042 129.175 25.042C131.386 25.042 132.8 23.1498 132.8 21.0631C132.8 18.605 131.306 17.0841 129.175 17.0841Z" fill="white"/>
<path d="M147.611 16.6333C147.823 16.872 147.983 17.1108 147.983 17.5175C147.983 18.048 147.558 18.5343 146.833 18.5343C146.382 18.5343 146.09 18.163 145.763 17.8977C145.153 17.3672 144.375 17.0666 143.499 17.0666C141.015 17.0666 139.742 18.9323 139.742 21.072C139.742 23.2119 141.023 25.0776 143.499 25.0776C144.383 25.0776 145.153 24.7857 145.763 24.2464C146.081 23.9811 146.373 23.6097 146.833 23.6097C147.549 23.6097 147.983 24.0873 147.983 24.6266C147.983 25.0245 147.823 25.2633 147.611 25.5108C146.807 26.4746 145.153 27.1908 143.473 27.1908C139.547 27.1908 137.231 24.494 137.231 21.0809C137.231 17.6679 139.547 14.971 143.473 14.971C145.153 14.9533 146.807 15.6783 147.611 16.6333Z" fill="white"/>
<path d="M160.971 21.0896C160.971 21.514 160.733 21.9473 160.007 21.9473H152.032C152.165 23.7864 153.42 25.1747 155.63 25.1747C157.019 25.1747 157.841 24.6971 158.726 23.866C158.938 23.6538 159.23 23.4681 159.557 23.4681C160.114 23.4681 160.6 23.866 160.6 24.5115C160.6 24.7768 160.467 25.0155 160.282 25.2277C159.265 26.4037 157.452 27.1729 155.534 27.1729C151.555 27.1729 149.45 24.3965 149.45 21.0631C149.45 17.5704 151.988 14.9531 155.427 14.9531C158.787 14.9531 160.971 17.6765 160.971 21.0896ZM155.427 16.9514C153.588 16.9514 152.333 18.2601 152.094 19.9135H158.654C158.443 18.3131 157.24 16.9514 155.427 16.9514Z" fill="white"/>
<path d="M115.974 27.1729C114.188 27.1729 112.72 26.2357 111.862 24.8828V29.4807C111.535 29.5161 111.181 29.5337 110.801 29.5426C110.28 29.5514 109.793 29.5249 109.36 29.4807V16.3147C109.36 15.625 109.784 15.0592 110.563 15.0592C111.332 15.0592 111.792 15.6427 111.792 16.3413V17.252C112.596 15.8638 114.196 14.9619 115.983 14.9619C119.051 14.9619 121.562 17.5261 121.562 21.0718C121.544 24.7413 119.042 27.1729 115.974 27.1729ZM115.461 17.031C113.304 17.031 111.862 18.9232 111.862 21.063C111.862 23.2027 113.304 25.095 115.461 25.095C117.619 25.095 119.033 23.468 119.033 21.063C119.042 18.6579 117.628 17.031 115.461 17.031Z" fill="white"/>
</svg>
